<svg version="1.1" xmlns="http://www.w3.org/2000/svg" xmlns:xlink="http://www.w3.org/1999/xlink" width="4800" height="2400" viewBox="0,0,4800,2400"><g fill="none" fill-rule="nonzero" stroke="none" stroke-width="1" stroke-linecap="butt" stroke-linejoin="miter" stroke-miterlimit="10" stroke-dasharray="" stroke-dashoffset="0" font-family="none" font-weight="none" font-size="none" text-anchor="none" style="mix-blend-mode: normal"><rect x="0" y="0" width="4800" height="2400" fill="#000000" stroke="#000000"></rect><rect x="0" y="0" width="600" height="600" fill="#daa985" stroke="none"></rect><rect x="150" y="150" width="300" height="300" fill="#d57846" stroke="none"></rect><rect x="0" y="600" width="600" height="600" fill="#de6954" stroke="none"></rect><rect x="150" y="750" width="300" height="300" fill="#dfdcc8" stroke="none"></rect><rect x="600" y="0" width="600" height="600" fill="#de7f6a" stroke="none"></rect><rect x="750" y="150" width="300" height="300" fill="#dcc5a9" stroke="none"></rect><rect x="600" y="600" width="600" height="600" fill="#d9a07a" stroke="none"></rect><rect x="750" y="750" width="300" height="300" fill="#de7f6a" stroke="none"></rect><rect x="0" y="600" width="300" height="300" fill="#d57846" stroke="none"></rect><rect x="75" y="675" width="150" height="150" fill="#d57c4b" stroke="none"></rect><rect x="0" y="900" width="300" height="300" fill="#d57846" stroke="none"></rect><rect x="75" y="975" width="150" height="150" fill="#df9480" stroke="none"></rect><rect x="0" y="1200" width="300" height="300" fill="#d89b73" stroke="none"></rect><rect x="75" y="1275" width="150" height="150" fill="#d57846" stroke="none"></rect><rect x="0" y="1500" width="300" height="300" fill="#d57846" stroke="none"></rect><rect x="75" y="1575" width="150" height="150" fill="#de5f4a" stroke="none"></rect><rect x="300" y="600" width="300" height="300" fill="#d57846" stroke="none"></rect><rect x="375" y="675" width="150" height="150" fill="#ddc8ad" stroke="none"></rect><rect x="300" y="900" width="300" height="300" fill="#df9f8a" stroke="none"></rect><rect x="375" y="975" width="150" height="150" fill="#d57846" stroke="none"></rect><rect x="300" y="1200" width="300" height="300" fill="#d57c4b" stroke="none"></rect><rect x="375" y="1275" width="150" height="150" fill="#d57846" stroke="none"></rect><rect x="300" y="1500" width="300" height="300" fill="#dfdfcb" stroke="none"></rect><rect x="375" y="1575" width="150" height="150" fill="#d57846" stroke="none"></rect><rect x="600" y="600" width="300" height="300" fill="#ded9c2" stroke="none"></rect><rect x="675" y="675" width="150" height="150" fill="#df513d" stroke="none"></rect><rect x="600" y="900" width="300" height="300" fill="#de5f4a" stroke="none"></rect><rect x="675" y="975" width="150" height="150" fill="#d79065" stroke="none"></rect><rect x="600" y="1200" width="300" height="300" fill="#d57846" stroke="none"></rect><rect x="675" y="1275" width="150" height="150" fill="#d68354" stroke="none"></rect><rect x="600" y="1500" width="300" height="300" fill="#d57846" stroke="none"></rect><rect x="675" y="1575" width="150" height="150" fill="#ded1b9" stroke="none"></rect><rect x="900" y="600" width="300" height="300" fill="#d57846" stroke="none"></rect><rect x="975" y="675" width="150" height="150" fill="#de5f4a" stroke="none"></rect><rect x="900" y="900" width="300" height="300" fill="#de8c77" stroke="none"></rect><rect x="975" y="975" width="150" height="150" fill="#dfdbc6" stroke="none"></rect><rect x="900" y="1200" width="300" height="300" fill="#ded4bd" stroke="none"></rect><rect x="975" y="1275" width="150" height="150" fill="#df937f" stroke="none"></rect><rect x="900" y="1500" width="300" height="300" fill="#d68354" stroke="none"></rect><rect x="975" y="1575" width="150" height="150" fill="#ded4bd" stroke="none"></rect><rect x="-600" y="600" width="2400" height="2400" fill="#d57846" stroke="none"></rect><rect x="0" y="1200" width="1200" height="1200" fill="#d57846" stroke="none"></rect><rect x="300" y="1500" width="600" height="600" fill="#de5a45" stroke="none"></rect><rect x="180" y="1380" width="840" height="840" fill="#dfd6c2" stroke="none"></rect><rect x="120" y="1320" width="960" height="960" fill="#dfc2ae" stroke="none"></rect><rect x="60" y="1260" width="1080" height="1080" fill="#d57846" stroke="none"></rect><rect x="240" y="1440" width="720" height="720" fill="#d57846" stroke="none"></rect><rect x="0" y="1800" width="300" height="300" fill="#d57846" stroke="none"></rect><rect x="75" y="1875" width="150" height="150" fill="#e4a999" stroke="none"></rect><rect x="0" y="2100" width="300" height="300" fill="#de8b76" stroke="none"></rect><rect x="75" y="2175" width="150" height="150" fill="#dfb8a4" stroke="none"></rect><rect x="0" y="2400" width="300" height="300" fill="#ddc9af" stroke="none"></rect><rect x="75" y="2475" width="150" height="150" fill="#d57846" stroke="none"></rect><rect x="0" y="2700" width="300" height="300" fill="#d99d76" stroke="none"></rect><rect x="75" y="2775" width="150" height="150" fill="#d57846" stroke="none"></rect><rect x="300" y="1800" width="300" height="300" fill="#e39786" stroke="none"></rect><rect x="375" y="1875" width="150" height="150" fill="#e17360" stroke="none"></rect><rect x="300" y="2100" width="300" height="300" fill="#dfa590" stroke="none"></rect><rect x="375" y="2175" width="150" height="150" fill="#d68658" stroke="none"></rect><rect x="300" y="2400" width="300" height="300" fill="#dfa995" stroke="none"></rect><rect x="375" y="2475" width="150" height="150" fill="#dcc0a3" stroke="none"></rect><rect x="300" y="2700" width="300" height="300" fill="#dfd7c3" stroke="none"></rect><rect x="375" y="2775" width="150" height="150" fill="#de5843" stroke="none"></rect><rect x="600" y="1800" width="300" height="300" fill="#d68151" stroke="none"></rect><rect x="675" y="1875" width="150" height="150" fill="#d78e63" stroke="none"></rect><rect x="600" y="2100" width="300" height="300" fill="#de442f" stroke="none"></rect><rect x="675" y="2175" width="150" height="150" fill="#e28977" stroke="none"></rect><rect x="600" y="2400" width="300" height="300" fill="#e27e6c" stroke="none"></rect><rect x="675" y="2475" width="150" height="150" fill="#d57846" stroke="none"></rect><rect x="600" y="2700" width="300" height="300" fill="#de7964" stroke="none"></rect><rect x="675" y="2775" width="150" height="150" fill="#e4a797" stroke="none"></rect><rect x="900" y="1800" width="300" height="300" fill="#dfbeaa" stroke="none"></rect><rect x="975" y="1875" width="150" height="150" fill="#de4833" stroke="none"></rect><rect x="900" y="2100" width="300" height="300" fill="#dfa894" stroke="none"></rect><rect x="975" y="2175" width="150" height="150" fill="#de6f5a" stroke="none"></rect><rect x="900" y="2400" width="300" height="300" fill="#e27e6c" stroke="none"></rect><rect x="975" y="2475" width="150" height="150" fill="#de5843" stroke="none"></rect><rect x="900" y="2700" width="300" height="300" fill="#d57846" stroke="none"></rect><rect x="975" y="2775" width="150" height="150" fill="#d57846" stroke="none"></rect><rect x="600" y="-600" width="2400" height="2400" fill="#dfc6b1" stroke="none"></rect><rect x="1260" y="60" width="1080" height="1080" fill="#de6c57" stroke="none"></rect><rect x="1500" y="300" width="600" height="600" fill="#d9a27c" stroke="none"></rect><rect x="1200" y="0" width="1200" height="1200" fill="#de4f3a" stroke="none"></rect><rect x="1440" y="240" width="720" height="720" fill="#de8d79" stroke="none"></rect><rect x="1320" y="120" width="960" height="960" fill="#dfbca8" stroke="none"></rect><rect x="1380" y="180" width="840" height="840" fill="#dfd7c3" stroke="none"></rect><rect x="1200" y="600" width="600" height="600" fill="#dbbb9c" stroke="none"></rect><rect x="1350" y="750" width="300" height="300" fill="#9dca70" stroke="none"></rect><rect x="1200" y="1200" width="600" height="600" fill="#e16d5a" stroke="none"></rect><rect x="1350" y="1350" width="300" height="300" fill="#d78c5f" stroke="none"></rect><rect x="1800" y="600" width="600" height="600" fill="#d78b5f" stroke="none"></rect><rect x="1950" y="750" width="300" height="300" fill="#d89870" stroke="none"></rect><rect x="1800" y="1200" width="600" height="600" fill="#e3907f" stroke="none"></rect><rect x="1950" y="1350" width="300" height="300" fill="#b4cd8a" stroke="none"></rect><rect x="1200" y="1200" width="300" height="300" fill="#dfddc8" stroke="none"></rect><rect x="1275" y="1275" width="150" height="150" fill="#e2d2bf" stroke="none"></rect><rect x="1200" y="1500" width="300" height="300" fill="#e5b1a2" stroke="none"></rect><rect x="1275" y="1575" width="150" height="150" fill="#de624d" stroke="none"></rect><rect x="1200" y="1800" width="300" height="300" fill="#de6651" stroke="none"></rect><rect x="1275" y="1875" width="150" height="150" fill="#e27f6d" stroke="none"></rect><rect x="1200" y="2100" width="300" height="300" fill="#dbb493" stroke="none"></rect><rect x="1275" y="2175" width="150" height="150" fill="#e38f7e" stroke="none"></rect><rect x="1500" y="1200" width="300" height="300" fill="#df9681" stroke="none"></rect><rect x="1575" y="1275" width="150" height="150" fill="#ddd0b7" stroke="none"></rect><rect x="1500" y="1500" width="300" height="300" fill="#df9682" stroke="none"></rect><rect x="1575" y="1575" width="150" height="150" fill="#de7b66" stroke="none"></rect><rect x="1500" y="1800" width="300" height="300" fill="#88c757" stroke="none"></rect><rect x="1575" y="1875" width="150" height="150" fill="#ddd0b7" stroke="none"></rect><rect x="1500" y="2100" width="300" height="300" fill="#e28371" stroke="none"></rect><rect x="1575" y="2175" width="150" height="150" fill="#de836e" stroke="none"></rect><rect x="1800" y="1200" width="300" height="300" fill="#de4c37" stroke="none"></rect><rect x="1875" y="1275" width="150" height="150" fill="#de715c" stroke="none"></rect><rect x="1800" y="1500" width="300" height="300" fill="#daac89" stroke="none"></rect><rect x="1875" y="1575" width="150" height="150" fill="#92c863" stroke="none"></rect><rect x="1800" y="1800" width="300" height="300" fill="#90c860" stroke="none"></rect><rect x="1875" y="1875" width="150" height="150" fill="#dfb09c" stroke="none"></rect><rect x="1800" y="2100" width="300" height="300" fill="#a2ca76" stroke="none"></rect><rect x="1875" y="2175" width="150" height="150" fill="#dfcfbb" stroke="none"></rect><rect x="2100" y="1200" width="300" height="300" fill="#e28371" stroke="none"></rect><rect x="2175" y="1275" width="150" height="150" fill="#df9985" stroke="none"></rect><rect x="2100" y="1500" width="300" height="300" fill="#e39483" stroke="none"></rect><rect x="2175" y="1575" width="150" height="150" fill="#dfcdb8" stroke="none"></rect><rect x="2100" y="1800" width="300" height="300" fill="#e16d5a" stroke="none"></rect><rect x="2175" y="1875" width="150" height="150" fill="#ddc7ab" stroke="none"></rect><rect x="2100" y="2100" width="300" height="300" fill="#de4c37" stroke="none"></rect><rect x="2175" y="2175" width="150" height="150" fill="#d1d0ab" stroke="none"></rect><rect x="600" y="1200" width="2400" height="2400" fill="#de543f" stroke="none"></rect><rect x="1200" y="1800" width="1200" height="1200" fill="#56a929" stroke="none"></rect><rect x="1440" y="2040" width="720" height="720" fill="#a7cb7c" stroke="none"></rect><rect x="1260" y="1860" width="1080" height="1080" fill="#de6a55" stroke="none"></rect><rect x="1500" y="2100" width="600" height="600" fill="#e5b8a9" stroke="none"></rect><rect x="1380" y="1980" width="840" height="840" fill="#56a929" stroke="none"></rect><rect x="1320" y="1920" width="960" height="960" fill="#de6a55" stroke="none"></rect><rect x="2400" y="0" width="600" height="600" fill="#de4e39" stroke="none"></rect><rect x="2550" y="150" width="300" height="300" fill="#dfd2bc" stroke="none"></rect><rect x="2400" y="600" width="600" height="600" fill="#cbcfa4" stroke="none"></rect><rect x="2550" y="750" width="300" height="300" fill="#dfa48f" stroke="none"></rect><rect x="3000" y="0" width="600" height="600" fill="#e5b0a0" stroke="none"></rect><rect x="3150" y="150" width="300" height="300" fill="#de4e39" stroke="none"></rect><rect x="3000" y="600" width="600" height="600" fill="#e5ad9d" stroke="none"></rect><rect x="3150" y="750" width="300" height="300" fill="#de4e39" stroke="none"></rect><rect x="2400" y="600" width="300" height="300" fill="#a8cb7d" stroke="none"></rect><rect x="2475" y="675" width="150" height="150" fill="#8dc85d" stroke="none"></rect><rect x="2400" y="900" width="300" height="300" fill="#e4a898" stroke="none"></rect><rect x="2475" y="975" width="150" height="150" fill="#df5844" stroke="none"></rect><rect x="2400" y="1200" width="300" height="300" fill="#bece95" stroke="none"></rect><rect x="2475" y="1275" width="150" height="150" fill="#e6c8ba" stroke="none"></rect><rect x="2400" y="1500" width="300" height="300" fill="#a2ca75" stroke="none"></rect><rect x="2475" y="1575" width="150" height="150" fill="#e17663" stroke="none"></rect><rect x="2700" y="600" width="300" height="300" fill="#55a52a" stroke="none"></rect><rect x="2775" y="675" width="150" height="150" fill="#e1d2be" stroke="none"></rect><rect x="2700" y="900" width="300" height="300" fill="#df5743" stroke="none"></rect><rect x="2775" y="975" width="150" height="150" fill="#57ab29" stroke="none"></rect><rect x="2700" y="1200" width="300" height="300" fill="#de5843" stroke="none"></rect><rect x="2775" y="1275" width="150" height="150" fill="#8dc85d" stroke="none"></rect><rect x="2700" y="1500" width="300" height="300" fill="#e4a595" stroke="none"></rect><rect x="2775" y="1575" width="150" height="150" fill="#78c545" stroke="none"></rect><rect x="3000" y="600" width="300" height="300" fill="#b9cd90" stroke="none"></rect><rect x="3075" y="675" width="150" height="150" fill="#e16c59" stroke="none"></rect><rect x="3000" y="900" width="300" height="300" fill="#4f922c" stroke="none"></rect><rect x="3075" y="975" width="150" height="150" fill="#77c544" stroke="none"></rect><rect x="3000" y="1200" width="300" height="300" fill="#313137" stroke="none"></rect><rect x="3075" y="1275" width="150" height="150" fill="#55a52a" stroke="none"></rect><rect x="3000" y="1500" width="300" height="300" fill="#e5b5a5" stroke="none"></rect><rect x="3075" y="1575" width="150" height="150" fill="#b2cc87" stroke="none"></rect><rect x="3300" y="600" width="300" height="300" fill="#c6cf9f" stroke="none"></rect><rect x="3375" y="675" width="150" height="150" fill="#de5b47" stroke="none"></rect><rect x="3300" y="900" width="300" height="300" fill="#97c969" stroke="none"></rect><rect x="3375" y="975" width="150" height="150" fill="#59b328" stroke="none"></rect><rect x="3300" y="1200" width="300" height="300" fill="#5dbd27" stroke="none"></rect><rect x="3375" y="1275" width="150" height="150" fill="#66c330" stroke="none"></rect><rect x="3300" y="1500" width="300" height="300" fill="#e4a191" stroke="none"></rect><rect x="3375" y="1575" width="150" height="150" fill="#406130" stroke="none"></rect><rect x="2400" y="1200" width="600" height="600" fill="#c4cf9d" stroke="none"></rect><rect x="2550" y="1350" width="300" height="300" fill="#353e42" stroke="none"></rect><rect x="2400" y="1800" width="600" height="600" fill="#df5440" stroke="none"></rect><rect x="2550" y="1950" width="300" height="300" fill="#9bca6d" stroke="none"></rect><rect x="3000" y="1200" width="600" height="600" fill="#55a42a" stroke="none"></rect><rect x="3150" y="1350" width="300" height="300" fill="#51972b" stroke="none"></rect><rect x="3000" y="1800" width="600" height="600" fill="#9bca6d" stroke="none"></rect><rect x="3150" y="1950" width="300" height="300" fill="#9bca6d" stroke="none"></rect><rect x="2400" y="1800" width="300" height="300" fill="#50952b" stroke="none"></rect><rect x="2475" y="1875" width="150" height="150" fill="#436d2f" stroke="none"></rect><rect x="2400" y="2100" width="300" height="300" fill="#59b129" stroke="none"></rect><rect x="2475" y="2175" width="150" height="150" fill="#63c32c" stroke="none"></rect><rect x="2400" y="2400" width="300" height="300" fill="#c4cf9c" stroke="none"></rect><rect x="2475" y="2475" width="150" height="150" fill="#e5b4a5" stroke="none"></rect><rect x="2400" y="2700" width="300" height="300" fill="#353d41" stroke="none"></rect><rect x="2475" y="2775" width="150" height="150" fill="#436d2f" stroke="none"></rect><rect x="2700" y="1800" width="300" height="300" fill="#406130" stroke="none"></rect><rect x="2775" y="1875" width="150" height="150" fill="#50952b" stroke="none"></rect><rect x="2700" y="2100" width="300" height="300" fill="#59b129" stroke="none"></rect><rect x="2775" y="2175" width="150" height="150" fill="#8dc85d" stroke="none"></rect><rect x="2700" y="2400" width="300" height="300" fill="#72c43e" stroke="none"></rect><rect x="2775" y="2475" width="150" height="150" fill="#e4aa9a" stroke="none"></rect><rect x="2700" y="2700" width="300" height="300" fill="#e28574" stroke="none"></rect><rect x="2775" y="2775" width="150" height="150" fill="#b3cd89" stroke="none"></rect><rect x="3000" y="1800" width="300" height="300" fill="#51982b" stroke="none"></rect><rect x="3075" y="1875" width="150" height="150" fill="#436565" stroke="none"></rect><rect x="3000" y="2100" width="300" height="300" fill="#5ba59e" stroke="none"></rect><rect x="3075" y="2175" width="150" height="150" fill="#4f912c" stroke="none"></rect><rect x="3000" y="2400" width="300" height="300" fill="#5cbd28" stroke="none"></rect><rect x="3075" y="2475" width="150" height="150" fill="#e39584" stroke="none"></rect><rect x="3000" y="2700" width="300" height="300" fill="#353d41" stroke="none"></rect><rect x="3075" y="2775" width="150" height="150" fill="#e39584" stroke="none"></rect><rect x="3300" y="1800" width="300" height="300" fill="#5dbe27" stroke="none"></rect><rect x="3375" y="1875" width="150" height="150" fill="#80c64e" stroke="none"></rect><rect x="3300" y="2100" width="300" height="300" fill="#e39382" stroke="none"></rect><rect x="3375" y="2175" width="150" height="150" fill="#3e5d31" stroke="none"></rect><rect x="3300" y="2400" width="300" height="300" fill="#ced0a8" stroke="none"></rect><rect x="3375" y="2475" width="150" height="150" fill="#4c7d7a" stroke="none"></rect><rect x="3300" y="2700" width="300" height="300" fill="#79c546" stroke="none"></rect><rect x="3375" y="2775" width="150" height="150" fill="#579c96" stroke="none"></rect><rect x="3600" y="0" width="300" height="300" fill="#e7cdbe" stroke="none"></rect><rect x="3675" y="75" width="150" height="150" fill="#63bdb3" stroke="none"></rect><rect x="3600" y="300" width="300" height="300" fill="#528f8a" stroke="none"></rect><rect x="3675" y="375" width="150" height="150" fill="#a9cb7e" stroke="none"></rect><rect x="3600" y="600" width="300" height="300" fill="#5fc228" stroke="none"></rect><rect x="3675" y="675" width="150" height="150" fill="#5fb1a8" stroke="none"></rect><rect x="3600" y="900" width="300" height="300" fill="#d2d0ad" stroke="none"></rect><rect x="3675" y="975" width="150" height="150" fill="#d6d1b2" stroke="none"></rect><rect x="3900" y="0" width="300" height="300" fill="#78c545" stroke="none"></rect><rect x="3975" y="75" width="150" height="150" fill="#99c96b" stroke="none"></rect><rect x="3900" y="300" width="300" height="300" fill="#4f8682" stroke="none"></rect><rect x="3975" y="375" width="150" height="150" fill="#7bc648" stroke="none"></rect><rect x="3900" y="600" width="300" height="300" fill="#7ac547" stroke="none"></rect><rect x="3975" y="675" width="150" height="150" fill="#a3cb76" stroke="none"></rect><rect x="3900" y="900" width="300" height="300" fill="#343d34" stroke="none"></rect><rect x="3975" y="975" width="150" height="150" fill="#d0d0aa" stroke="none"></rect><rect x="4200" y="0" width="300" height="300" fill="#63bdb3" stroke="none"></rect><rect x="4275" y="75" width="150" height="150" fill="#3e5d31" stroke="none"></rect><rect x="4200" y="300" width="300" height="300" fill="#5eb0a8" stroke="none"></rect><rect x="4275" y="375" width="150" height="150" fill="#e7d2c4" stroke="none"></rect><rect x="4200" y="600" width="300" height="300" fill="#72c43e" stroke="none"></rect><rect x="4275" y="675" width="150" height="150" fill="#63bdb3" stroke="none"></rect><rect x="4200" y="900" width="300" height="300" fill="#78c545" stroke="none"></rect><rect x="4275" y="975" width="150" height="150" fill="#7ac547" stroke="none"></rect><rect x="4500" y="0" width="300" height="300" fill="#8ec85f" stroke="none"></rect><rect x="4575" y="75" width="150" height="150" fill="#4e827e" stroke="none"></rect><rect x="4500" y="300" width="300" height="300" fill="#59a29b" stroke="none"></rect><rect x="4575" y="375" width="150" height="150" fill="#8bc85b" stroke="none"></rect><rect x="4500" y="600" width="300" height="300" fill="#3f5f30" stroke="none"></rect><rect x="4575" y="675" width="150" height="150" fill="#b6cd8c" stroke="none"></rect><rect x="4500" y="900" width="300" height="300" fill="#3b5132" stroke="none"></rect><rect x="4575" y="975" width="150" height="150" fill="#70c43b" stroke="none"></rect><rect x="3600" y="600" width="600" height="600" fill="#63bdb3" stroke="none"></rect><rect x="3750" y="750" width="300" height="300" fill="#63bdb3" stroke="none"></rect><rect x="3600" y="1200" width="600" height="600" fill="#63bdb3" stroke="none"></rect><rect x="3750" y="1350" width="300" height="300" fill="#63bdb3" stroke="none"></rect><rect x="4200" y="600" width="600" height="600" fill="#343c34" stroke="none"></rect><rect x="4350" y="750" width="300" height="300" fill="#63bdb3" stroke="none"></rect><rect x="4200" y="1200" width="600" height="600" fill="#55a42a" stroke="none"></rect><rect x="4350" y="1350" width="300" height="300" fill="#63bdb3" stroke="none"></rect><rect x="3600" y="1200" width="300" height="300" fill="#6dc438" stroke="none"></rect><rect x="3675" y="1275" width="150" height="150" fill="#63bdb3" stroke="none"></rect><rect x="3600" y="1500" width="300" height="300" fill="#63c32c" stroke="none"></rect><rect x="3675" y="1575" width="150" height="150" fill="#569892" stroke="none"></rect><rect x="3600" y="1800" width="300" height="300" fill="#3e5758" stroke="none"></rect><rect x="3675" y="1875" width="150" height="150" fill="#579c96" stroke="none"></rect><rect x="3600" y="2100" width="300" height="300" fill="#9cca6e" stroke="none"></rect><rect x="3675" y="2175" width="150" height="150" fill="#456b6a" stroke="none"></rect><rect x="3900" y="1200" width="300" height="300" fill="#32353a" stroke="none"></rect><rect x="3975" y="1275" width="150" height="150" fill="#529b2b" stroke="none"></rect><rect x="3900" y="1500" width="300" height="300" fill="#374533" stroke="none"></rect><rect x="3975" y="1575" width="150" height="150" fill="#446867" stroke="none"></rect><rect x="3900" y="1800" width="300" height="300" fill="#63bdb3" stroke="none"></rect><rect x="3975" y="1875" width="150" height="150" fill="#63bdb3" stroke="none"></rect><rect x="3900" y="2100" width="300" height="300" fill="#39474a" stroke="none"></rect><rect x="3975" y="2175" width="150" height="150" fill="#7ac547" stroke="none"></rect><rect x="4200" y="1200" width="300" height="300" fill="#57ab29" stroke="none"></rect><rect x="4275" y="1275" width="150" height="150" fill="#63bdb3" stroke="none"></rect><rect x="4200" y="1500" width="300" height="300" fill="#57ad29" stroke="none"></rect><rect x="4275" y="1575" width="150" height="150" fill="#426263" stroke="none"></rect><rect x="4200" y="1800" width="300" height="300" fill="#63bdb3" stroke="none"></rect><rect x="4275" y="1875" width="150" height="150" fill="#6dc438" stroke="none"></rect><rect x="4200" y="2100" width="300" height="300" fill="#33383d" stroke="none"></rect><rect x="4275" y="2175" width="150" height="150" fill="#9cca6e" stroke="none"></rect><rect x="4500" y="1200" width="300" height="300" fill="#426830" stroke="none"></rect><rect x="4575" y="1275" width="150" height="150" fill="#9cca6e" stroke="none"></rect><rect x="4500" y="1500" width="300" height="300" fill="#63bdb3" stroke="none"></rect><rect x="4575" y="1575" width="150" height="150" fill="#57ad29" stroke="none"></rect><rect x="4500" y="1800" width="300" height="300" fill="#3e5758" stroke="none"></rect><rect x="4575" y="1875" width="150" height="150" fill="#45732f" stroke="none"></rect><rect x="4500" y="2100" width="300" height="300" fill="#3d5931" stroke="none"></rect><rect x="4575" y="2175" width="150" height="150" fill="#63bdb3" stroke="none"></rect><rect x="3000" y="1200" width="2400" height="2400" fill="#63bdb3" stroke="none"></rect><rect x="3600" y="1800" width="1200" height="1200" fill="#63bdb3" stroke="none"></rect><rect x="3840" y="2040" width="720" height="720" fill="#63bdb3" stroke="none"></rect><rect x="3900" y="2100" width="600" height="600" fill="#589f98" stroke="none"></rect><rect x="3720" y="1920" width="960" height="960" fill="#63bdb3" stroke="none"></rect><rect x="3780" y="1980" width="840" height="840" fill="#589f98" stroke="none"></rect><rect x="3660" y="1860" width="1080" height="1080" fill="#3a5032" stroke="none"></rect></g></svg>